<?xml version="1.0" encoding="UTF-8" standalone="no"?>
<!-- Created with Inkscape (http://www.inkscape.org/) -->

<svg
   width="447.25845mm"
   height="70.497025mm"
   viewBox="0 0 447.25845 70.497025"
   version="1.1"
   id="svg209"
   inkscape:version="1.1.2 (0a00cf5339, 2022-02-04)"
   sodipodi:docname="kustosz_logo.svg"
   xmlns:inkscape="http://www.inkscape.org/namespaces/inkscape"
   xmlns:sodipodi="http://sodipodi.sourceforge.net/DTD/sodipodi-0.dtd"
   xmlns="http://www.w3.org/2000/svg"
   xmlns:svg="http://www.w3.org/2000/svg">
  <sodipodi:namedview
     id="namedview211"
     pagecolor="#ffffff"
     bordercolor="#666666"
     borderopacity="1.0"
     inkscape:pageshadow="2"
     inkscape:pageopacity="0.0"
     inkscape:pagecheckerboard="0"
     inkscape:document-units="mm"
     showgrid="false"
     fit-margin-top="0"
     fit-margin-left="0"
     fit-margin-right="0"
     fit-margin-bottom="0"
     inkscape:zoom="0.28685466"
     inkscape:cx="646.66895"
     inkscape:cy="142.92953"
     inkscape:window-width="1920"
     inkscape:window-height="1005"
     inkscape:window-x="0"
     inkscape:window-y="0"
     inkscape:window-maximized="1"
     inkscape:current-layer="layer1" />
  <defs
     id="defs206" />
  <g
     inkscape:label="Warstwa 1"
     inkscape:groupmode="layer"
     id="layer1"
     transform="translate(116.63546,-85.580686)">
    <g
       transform="matrix(1.8172985,0,0,1.8172985,-641.58939,-1768.2588)"
       id="g76"
       inkscape:export-filename="/tmp/g76.png"
       inkscape:export-xdpi="29.985348"
       inkscape:export-ydpi="29.985348"
       style="clip-rule:evenodd;fill-rule:evenodd;stroke-linejoin:round;stroke-miterlimit:2">
      <path
         d="m 288.865,1022.92 h 8.85 v 14.5 l 12.05,-14.5 h 10.5 l -14.15,17 15.1,17.95 h -10.5 l -13,-15.45 v 15.45 h -8.85 z"
         style="fill:#6b8469;fill-rule:nonzero"
         id="path74" />
    </g>
    <g
       transform="matrix(1.8172985,0,0,1.8172985,-645.29356,-1768.2588)"
       id="g80"
       inkscape:export-filename="/tmp/g76.png"
       inkscape:export-xdpi="29.985348"
       inkscape:export-ydpi="29.985348"
       style="clip-rule:evenodd;fill-rule:evenodd;stroke-linejoin:round;stroke-miterlimit:2">
      <path
         d="m 379.865,1058.62 c -2.2,0 -4.383,-0.21 -6.55,-0.62 -2.166,-0.42 -3.95,-0.99 -5.35,-1.73 v -7.95 c 1.8,0.94 3.675,1.64 5.625,2.1 1.95,0.47 3.809,0.7 5.575,0.7 1.634,0 2.867,-0.25 3.7,-0.75 0.834,-0.5 1.25,-1.21 1.25,-2.15 0,-0.7 -0.225,-1.31 -0.675,-1.82 -0.45,-0.52 -1.108,-0.99 -1.975,-1.43 -0.866,-0.43 -2.216,-1.03 -4.05,-1.8 -3.233,-1.36 -5.583,-2.88 -7.05,-4.55 -1.466,-1.66 -2.2,-3.71 -2.2,-6.15 0,-2 0.559,-3.78 1.675,-5.35 1.117,-1.56 2.675,-2.78 4.675,-3.65 2,-0.86 4.3,-1.3 6.9,-1.3 2.134,0 4.034,0.17 5.7,0.5 1.667,0.34 3.267,0.87 4.8,1.6 v 7.75 c -2.933,-1.53 -5.883,-2.3 -8.85,-2.3 -1.6,0 -2.875,0.26 -3.825,0.78 -0.95,0.52 -1.425,1.26 -1.425,2.22 0,0.97 0.484,1.75 1.45,2.35 0.967,0.6 2.75,1.42 5.35,2.45 2.367,0.97 4.209,1.92 5.525,2.85 1.317,0.94 2.275,2.02 2.875,3.25 0.6,1.24 0.9,2.8 0.9,4.7 0,3.24 -1.175,5.76 -3.525,7.58 -2.35,1.81 -5.858,2.72 -10.525,2.72 z"
         style="fill:#b5bbba;fill-rule:nonzero"
         id="path78" />
    </g>
    <g
       transform="matrix(1.8172985,0,0,1.8172985,-645.29356,-1768.2588)"
       id="g84"
       inkscape:export-filename="/tmp/g76.png"
       inkscape:export-xdpi="29.985348"
       inkscape:export-ydpi="29.985348"
       style="clip-rule:evenodd;fill-rule:evenodd;stroke-linejoin:round;stroke-miterlimit:2">
      <path
         d="m 379.865,1058.62 c -2.2,0 -4.383,-0.21 -6.55,-0.62 -2.166,-0.42 -3.95,-0.99 -5.35,-1.73 v -7.95 c 1.8,0.94 3.675,1.64 5.625,2.1 1.95,0.47 3.809,0.7 5.575,0.7 1.634,0 2.867,-0.25 3.7,-0.75 0.834,-0.5 1.25,-1.21 1.25,-2.15 0,-0.7 -0.225,-1.31 -0.675,-1.82 -0.45,-0.52 -1.108,-0.99 -1.975,-1.43 -0.866,-0.43 -2.216,-1.03 -4.05,-1.8 -3.233,-1.36 -5.583,-2.88 -7.05,-4.55 -1.466,-1.66 -2.2,-3.71 -2.2,-6.15 0,-2 0.559,-3.78 1.675,-5.35 1.117,-1.56 2.675,-2.78 4.675,-3.65 2,-0.86 4.3,-1.3 6.9,-1.3 2.134,0 4.034,0.17 5.7,0.5 1.667,0.34 3.267,0.87 4.8,1.6 v 7.75 c -2.933,-1.53 -5.883,-2.3 -8.85,-2.3 -1.6,0 -2.875,0.26 -3.825,0.78 -0.95,0.52 -1.425,1.26 -1.425,2.22 0,0.97 0.484,1.75 1.45,2.35 0.967,0.6 2.75,1.42 5.35,2.45 2.367,0.97 4.209,1.92 5.525,2.85 1.317,0.94 2.275,2.02 2.875,3.25 0.6,1.24 0.9,2.8 0.9,4.7 0,3.24 -1.175,5.76 -3.525,7.58 -2.35,1.81 -5.858,2.72 -10.525,2.72 z"
         style="fill:#6b8469;fill-rule:nonzero"
         id="path82" />
    </g>
    <g
       transform="matrix(1.8172985,0,0,1.8172985,-645.29356,-1768.2588)"
       id="g88"
       inkscape:export-filename="/tmp/g76.png"
       inkscape:export-xdpi="29.985348"
       inkscape:export-ydpi="29.985348"
       style="clip-rule:evenodd;fill-rule:evenodd;stroke-linejoin:round;stroke-miterlimit:2">
      <path
         d="m 409.265,1030.37 h -9.85 v -7.45 h 28.6 v 7.45 h -9.9 v 27.5 h -8.85 z"
         style="fill:#6b8469;fill-rule:nonzero"
         id="path86" />
    </g>
    <g
       transform="matrix(1.8172985,0,0,1.8172985,-645.29356,-1768.2588)"
       id="g92"
       inkscape:export-filename="/tmp/g76.png"
       inkscape:export-xdpi="29.985348"
       inkscape:export-ydpi="29.985348"
       style="clip-rule:evenodd;fill-rule:evenodd;stroke-linejoin:round;stroke-miterlimit:2">
      <path
         d="m 451.815,1058.62 c -3.533,0 -6.725,-0.76 -9.575,-2.3 -2.85,-1.53 -5.1,-3.67 -6.75,-6.42 -1.65,-2.75 -2.475,-5.91 -2.475,-9.48 0,-3.56 0.825,-6.73 2.475,-9.5 1.65,-2.76 3.9,-4.91 6.75,-6.45 2.85,-1.53 6.042,-2.3 9.575,-2.3 3.5,0 6.675,0.77 9.525,2.3 2.85,1.54 5.092,3.69 6.725,6.45 1.634,2.77 2.45,5.94 2.45,9.5 0,3.57 -0.816,6.73 -2.45,9.48 -1.633,2.75 -3.875,4.89 -6.725,6.42 -2.85,1.54 -6.025,2.3 -9.525,2.3 z m 0,-8.3 c 1.767,0 3.384,-0.4 4.85,-1.2 1.467,-0.8 2.634,-1.95 3.5,-3.45 0.867,-1.5 1.3,-3.25 1.3,-5.25 0,-2 -0.425,-3.74 -1.275,-5.22 -0.85,-1.49 -2.008,-2.63 -3.475,-3.45 -1.466,-0.82 -3.1,-1.23 -4.9,-1.23 -1.833,0 -3.483,0.41 -4.95,1.23 -1.466,0.82 -2.625,1.96 -3.475,3.45 -0.85,1.48 -1.275,3.22 -1.275,5.22 0,2 0.425,3.75 1.275,5.25 0.85,1.5 2.017,2.65 3.5,3.45 1.484,0.8 3.125,1.2 4.925,1.2 z"
         style="fill:#6b8469;fill-rule:nonzero"
         id="path90" />
    </g>
    <g
       transform="matrix(1.8172985,0,0,1.8172985,-645.29356,-1768.2588)"
       id="g96"
       inkscape:export-filename="/tmp/g76.png"
       inkscape:export-xdpi="29.985348"
       inkscape:export-ydpi="29.985348"
       style="clip-rule:evenodd;fill-rule:evenodd;stroke-linejoin:round;stroke-miterlimit:2">
      <path
         d="m 488.665,1058.62 c -2.2,0 -4.383,-0.21 -6.55,-0.62 -2.166,-0.42 -3.95,-0.99 -5.35,-1.73 v -7.95 c 1.8,0.94 3.675,1.64 5.625,2.1 1.95,0.47 3.809,0.7 5.575,0.7 1.634,0 2.867,-0.25 3.7,-0.75 0.834,-0.5 1.25,-1.21 1.25,-2.15 0,-0.7 -0.225,-1.31 -0.675,-1.82 -0.45,-0.52 -1.108,-0.99 -1.975,-1.43 -0.866,-0.43 -2.216,-1.03 -4.05,-1.8 -3.233,-1.36 -5.583,-2.88 -7.05,-4.55 -1.466,-1.66 -2.2,-3.71 -2.2,-6.15 0,-2 0.559,-3.78 1.675,-5.35 1.117,-1.56 2.675,-2.78 4.675,-3.65 2,-0.86 4.3,-1.3 6.9,-1.3 2.134,0 4.034,0.17 5.7,0.5 1.667,0.34 3.267,0.87 4.8,1.6 v 7.75 c -2.933,-1.53 -5.883,-2.3 -8.85,-2.3 -1.6,0 -2.875,0.26 -3.825,0.78 -0.95,0.52 -1.425,1.26 -1.425,2.22 0,0.97 0.484,1.75 1.45,2.35 0.967,0.6 2.75,1.42 5.35,2.45 2.367,0.97 4.209,1.92 5.525,2.85 1.317,0.94 2.275,2.02 2.875,3.25 0.6,1.24 0.9,2.8 0.9,4.7 0,3.24 -1.175,5.76 -3.525,7.58 -2.35,1.81 -5.858,2.72 -10.525,2.72 z"
         style="fill:#6b8469;fill-rule:nonzero"
         id="path94" />
    </g>
    <g
       transform="matrix(1.8172985,0,0,1.8172985,-645.29356,-1768.2588)"
       id="g100"
       inkscape:export-filename="/tmp/g76.png"
       inkscape:export-xdpi="29.985348"
       inkscape:export-ydpi="29.985348"
       style="clip-rule:evenodd;fill-rule:evenodd;stroke-linejoin:round;stroke-miterlimit:2">
      <path
         d="m 508.965,1051.87 15.9,-21.5 h -15.5 v -7.45 h 26.55 v 6.05 l -15.8,21.45 h 16.9 v 7.45 h -28.05 z"
         style="fill:#6b8469;fill-rule:nonzero"
         id="path98" />
    </g>
    <g
       transform="matrix(0.37208354,0.08565568,-0.08565568,0.37208354,-239.50975,-376.50672)"
       id="g104"
       inkscape:export-filename="/tmp/g76.png"
       inkscape:export-xdpi="29.985348"
       inkscape:export-ydpi="29.985348"
       style="clip-rule:evenodd;fill-rule:evenodd;stroke-linejoin:round;stroke-miterlimit:2">
      <rect
         x="877.78699"
         y="1064.02"
         width="42.123001"
         height="34.708"
         style="fill:#415242;fill-rule:nonzero"
         id="rect102" />
    </g>
    <g
       transform="matrix(0.37208354,0.08565568,-0.08565568,0.37208354,-239.50975,-376.50672)"
       id="g108"
       inkscape:export-filename="/tmp/g76.png"
       inkscape:export-xdpi="29.985348"
       inkscape:export-ydpi="29.985348"
       style="clip-rule:evenodd;fill-rule:evenodd;stroke-linejoin:round;stroke-miterlimit:2">
      <rect
         x="775.09698"
         y="1063.46"
         width="42.123001"
         height="34.708"
         style="fill:#b5cab2;fill-rule:nonzero"
         id="rect106" />
    </g>
    <g
       transform="matrix(0.37208354,0.08565568,-0.08565568,0.37208354,-239.50975,-376.50672)"
       id="g112"
       inkscape:export-filename="/tmp/g76.png"
       inkscape:export-xdpi="29.985348"
       inkscape:export-ydpi="29.985348"
       style="clip-rule:evenodd;fill-rule:evenodd;stroke-linejoin:round;stroke-miterlimit:2">
      <path
         d="m 877.787,1106.05 v 55.07 c 0,11.1 -2.974,19.51 -8.924,25.22 -4.576,4.4 -10.49,7.1 -17.742,8.11 v 39.31 c 21.666,-1.14 38.249,-7.78 49.751,-19.93 12.692,-13.41 19.038,-31.14 19.038,-53.19 v -54.59 z"
         style="fill:#415242;fill-rule:nonzero"
         id="path110" />
    </g>
    <g
       transform="matrix(0.37208354,0.08565568,-0.08565568,0.37208354,-239.50975,-376.50672)"
       id="g116"
       inkscape:export-filename="/tmp/g76.png"
       inkscape:export-xdpi="29.985348"
       inkscape:export-ydpi="29.985348"
       style="clip-rule:evenodd;fill-rule:evenodd;stroke-linejoin:round;stroke-miterlimit:2">
      <path
         d="m 817.22,1105.5 v 55.06 c 0,11.11 2.974,19.52 8.924,25.23 4.576,4.39 10.49,7.09 17.742,8.11 v 39.31 c -21.666,-1.14 -38.249,-7.79 -49.751,-19.93 -12.692,-13.41 -19.038,-31.14 -19.038,-53.19 v -54.59 z"
         style="fill:#b5cab2;fill-rule:nonzero"
         id="path114" />
    </g>
  </g>
</svg>
